<svg display="none" version="1.1" xmlns="http://www.w3.org/2000/svg" xmlns:xlink="http://www.w3.org/1999/xlink" width="32" height="32" viewBox="0 0 32 32">
    <defs>
        <g id="icon-logo">
            <path fill="#FFFFFF" d="M29.7,31.8L2,32c0,0-1.9-0.3-1.9-2.2c0-1.9,0.1-15.6,0.1-15.6s0.4-0.6,0.9-1.2C1.7,12.5,13.6,1.4,13.6,1.4l4.8,0L30.9,13c0,0,0.6,0.7,0.8,1.1c0.2,0.4,0,14.3,0,14.3L29.7,31.8z"/>
            <path fill="#ff4848" d="M31.8,14.1l-10.2,6l-3.4,2l-0.9,0.5L16,23.4c3.7,2.1,7.3,4.3,11,6.4c1.2,0.7,2.3,1.4,3.5,2c0.9-0.4,1.5-1.2,1.5-2.2V15.3C32,14.9,31.9,14.5,31.8,14.1z"/>
            <path fill="#ff6565" d="M16,23.4L16,23.4L1.6,31.9C1.8,32,2.1,32,2.4,32h1.7h6h19.6c0.3,0,0.6-0.1,0.9-0.2c-1.2-0.7-2.3-1.4-3.5-2C23.4,27.7,19.7,25.5,16,23.4z"/>
            <path fill="#ff6565" d="M13.8,22.1l-3.4-2l-10.2-6C0.1,14.5,0,14.9,0,15.3v14.3c0,0.5,0.2,1,0.4,1.4l14.2-8.4L13.8,22.1z"/>
            <path fill="#ff4848" d="M19.2,15.6h-6.4C12.8,19.7,19.2,19.7,19.2,15.6z"/>
            <path fill="#ff4848" d="M13.6,13.8c0-0.8-1.2-0.8-1.2,0S13.6,14.6,13.6,13.8z"/>
            <path fill="#ff4848" d="M19.6,13.8c0-0.8-1.2-0.8-1.2,0S19.6,14.6,19.6,13.8z"/>
            <path fill="#ff4848" d="M16,6.4c5.6,0,9.5,5.9,7.4,11.1l7.5-4.4l-0.7-0.6L17.6,0.6c-0.9-0.8-2.3-0.8-3.2,0L1.8,12.4L1.1,13l7.5,4.4C6.5,12.3,10.4,6.4,16,6.4z"/>
        </g>

        <g id="icon-search">
            <path d="M31.5,10.7c-0.4-4.4-3.6-8.4-7.8-9.9c-4.3-1.5-9.1-0.4-12.3,2.8c-3.7,3.7-4.6,9.5-2,14.1c0.4,0.7,0.4,0.4,0.1,0.8c-0.2,0.3-0.6,0.6-0.9,0.9c-1,1-2,2-3,3C4,24,2.4,25.5,1,27.1c-1.1,1.2-1.2,3,0.1,4c1.2,1,2.7,0.6,3.7-0.4c1.6-1.6,3.2-3.2,4.7-4.8c0.9-0.9,1.8-1.8,2.7-2.7c0.2-0.2,0.9-1.2,1.3-1.3c0.3,0,1.2,0.7,1.5,0.8c0.5,0.2,1,0.4,1.5,0.6c1.1,0.3,2.2,0.5,3.3,0.5c2.3,0,4.5-0.6,6.4-1.9C30,19.4,32,15.2,31.5,10.7z M23.1,19.2c-3,1.4-6.6,0.7-8.8-1.6c-2.6-2.6-3.1-6.9-0.9-10c1.9-2.7,5.3-4,8.5-3.2c3.1,0.8,5.5,3.6,5.8,6.8C27.9,14.5,26.1,17.7,23.1,19.2z"/>
            <path d="M11.4,3.6C13.8,1.3,9.1,5.9,11.4,3.6L11.4,3.6z"/>
        </g>

        <g id="icon-plus">
            <path shape-rendering="geometricPrecision" d="M0,13.2h13.1V0h5.7v13.2h13.1v5.6H18.8V32h-5.7V18.8H0V13.2z"/>
        </g>
    </defs>
</svg>