<svg display="none" version="1.1" xmlns="http://www.w3.org/2000/svg" xmlns:xlink="http://www.w3.org/1999/xlink" width="32" height="32" viewBox="0 0 32 32">
  <defs>
    <!-- // Icons ///////////// -->
    <g id="icon-logo">
      <path fill="#FFFFFF" d="M29.7,31.8L2,32c0,0-1.9-0.3-1.9-2.2c0-1.9,0.1-15.6,0.1-15.6s0.4-0.6,0.9-1.2C1.7,12.5,13.6,1.4,13.6,1.4l4.8,0L30.9,13c0,0,0.6,0.7,0.8,1.1c0.2,0.4,0,14.3,0,14.3L29.7,31.8z"/>
      <path fill="#ff4848" d="M31.8,14.1l-10.2,6l-3.4,2l-0.9,0.5L16,23.4c3.7,2.1,7.3,4.3,11,6.4c1.2,0.7,2.3,1.4,3.5,2c0.9-0.4,1.5-1.2,1.5-2.2V15.3C32,14.9,31.9,14.5,31.8,14.1z"/>
      <path fill="#ff6565" d="M16,23.4L16,23.4L1.6,31.9C1.8,32,2.1,32,2.4,32h1.7h6h19.6c0.3,0,0.6-0.1,0.9-0.2c-1.2-0.7-2.3-1.4-3.5-2C23.4,27.7,19.7,25.5,16,23.4z"/>
      <path fill="#ff6565" d="M13.8,22.1l-3.4-2l-10.2-6C0.1,14.5,0,14.9,0,15.3v14.3c0,0.5,0.2,1,0.4,1.4l14.2-8.4L13.8,22.1z"/>
      <path fill="#ff4848" d="M19.2,15.6h-6.4C12.8,19.7,19.2,19.7,19.2,15.6z"/>
      <path fill="#ff4848" d="M13.6,13.8c0-0.8-1.2-0.8-1.2,0S13.6,14.6,13.6,13.8z"/>
      <path fill="#ff4848" d="M19.6,13.8c0-0.8-1.2-0.8-1.2,0S19.6,14.6,19.6,13.8z"/>
      <path fill="#ff4848" d="M16,6.4c5.6,0,9.5,5.9,7.4,11.1l7.5-4.4l-0.7-0.6L17.6,0.6c-0.9-0.8-2.3-0.8-3.2,0L1.8,12.4L1.1,13l7.5,4.4C6.5,12.3,10.4,6.4,16,6.4z"/>
    </g>
    <g id="icon-search">
      <path d="M31.5,10.7c-0.4-4.4-3.6-8.4-7.8-9.9c-4.3-1.5-9.1-0.4-12.3,2.8c-3.7,3.7-4.6,9.5-2,14.1c0.4,0.7,0.4,0.4,0.1,0.8c-0.2,0.3-0.6,0.6-0.9,0.9c-1,1-2,2-3,3C4,24,2.4,25.5,1,27.1c-1.1,1.2-1.2,3,0.1,4c1.2,1,2.7,0.6,3.7-0.4c1.6-1.6,3.2-3.2,4.7-4.8c0.9-0.9,1.8-1.8,2.7-2.7c0.2-0.2,0.9-1.2,1.3-1.3c0.3,0,1.2,0.7,1.5,0.8c0.5,0.2,1,0.4,1.5,0.6c1.1,0.3,2.2,0.5,3.3,0.5c2.3,0,4.5-0.6,6.4-1.9C30,19.4,32,15.2,31.5,10.7z M23.1,19.2c-3,1.4-6.6,0.7-8.8-1.6c-2.6-2.6-3.1-6.9-0.9-10c1.9-2.7,5.3-4,8.5-3.2c3.1,0.8,5.5,3.6,5.8,6.8C27.9,14.5,26.1,17.7,23.1,19.2z"/>
      <path d="M11.4,3.6C13.8,1.3,9.1,5.9,11.4,3.6L11.4,3.6z"/>
    </g>
    <g id="icon-plus">
      <path shape-rendering="geometricPrecision" d="M0,13.2h13.1V0h5.7v13.2h13.1v5.6H18.8V32h-5.7V18.8H0V13.2z"/>
    </g>
    <g id="icon-list">
      <path shape-rendering="crispEdges" d="M31.3,13.3H8.7C8.3,13.3,8,13.6,8,14v4c0,0.4,0.3,0.7,0.7,0.7h22.7c0.4,0,0.7-0.3,0.7-0.7v-4C32,13.6,31.7,13.3,31.3,13.3z"/>
      <path shape-rendering="crispEdges" d="M31.3,24.7H8.7c-0.4,0-0.7,0.3-0.7,0.7v4C8,29.7,8.3,30,8.7,30h22.7c0.4,0,0.7-0.3,0.7-0.7v-4C32,24.9,31.7,24.7,31.3,24.7z"/>
      <path shape-rendering="crispEdges" d="M31.3,2H8.7C8.3,2,8,2.3,8,2.7v4c0,0.4,0.3,0.7,0.7,0.7h22.7c0.4,0,0.7-0.3,0.7-0.7v-4C32,2.3,31.7,2,31.3,2z"/>
      <path shape-rendering="crispEdges" d="M4.7,24.7h-4c-0.4,0-0.7,0.3-0.7,0.7v4C0,29.7,0.3,30,0.7,30h4c0.4,0,0.7-0.3,0.7-0.7v-4C5.3,24.9,5.1,24.7,4.7,24.7z"/>
      <path shape-rendering="crispEdges" d="M4.7,2h-4C0.3,2,0,2.3,0,2.7v4c0,0.4,0.3,0.7,0.7,0.7h4c0.4,0,0.7-0.3,0.7-0.7v-4C5.3,2.3,5.1,2,4.7,2z"/>
      <path shape-rendering="crispEdges" d="M4.7,13.3h-4C0.3,13.3,0,13.6,0,14v4c0,0.4,0.3,0.7,0.7,0.7h4c0.4,0,0.7-0.3,0.7-0.7v-4C5.3,13.6,5.1,13.3,4.7,13.3z"/>
    </g>
    <g id="icon-smiley">
      <polygon points="11.6,11.8 11.6,11.8 11.6,11.8"/>
      <path d="M31.7,13.9c-0.3-2.7-1.3-5.1-3-7.3c-1.9-2.4-4.2-4.3-7.1-5.4c-0.7-0.3-1.5-0.5-2.3-0.7c-0.8-0.2-1.6-0.2-2.4-0.3c-0.7,0-1.4,0-2.1,0c-3.1,0.4-6,1.2-8.5,3.1c-4.4,3.4-6.7,8.5-6.3,14.1c0.4,6.8,5.3,11.4,9.3,13.2c1.6,0.7,3.3,1.1,5.1,1.3c2.7,0.2,5.3-0.1,7.7-1.2c4.7-2.2,7.9-5.8,9.1-10.9c0.2-0.9,0.3-1.8,0.4-2.7c0-0.1,0-0.2,0-0.3c0-0.5,0-1,0-1.5C31.8,14.8,31.8,14.3,31.7,13.9z M20.8,11.7C20.8,11.7,20.8,11.7,20.8,11.7c0-1.1,0.9-2,2.1-1.9c1.1,0,2.1,0.9,2.1,2c0,1.1-1,2-2.1,2C21.8,13.7,20.8,12.8,20.8,11.7C20.8,11.7,20.8,11.8,20.8,11.7C20.8,11.8,20.8,11.7,20.8,11.7C20.8,11.7,20.8,11.7,20.8,11.7z M20.8,11.4C20.8,11.4,20.8,11.4,20.8,11.4C20.8,11.4,20.8,11.4,20.8,11.4z M20.8,11.4C20.8,11.4,20.8,11.5,20.8,11.4C20.8,11.5,20.8,11.4,20.8,11.4z M20.8,11.5c0,0,0,0.1,0,0.1C20.8,11.5,20.8,11.5,20.8,11.5zM20.8,11.6C20.8,11.6,20.8,11.6,20.8,11.6C20.8,11.6,20.8,11.6,20.8,11.6z M20.8,11.7C20.8,11.7,20.8,11.7,20.8,11.7C20.8,11.7,20.8,11.7,20.8,11.7z M20.8,12C20.8,12.1,20.8,12.1,20.8,12L20.8,12z M20.8,11.8C20.8,11.8,20.8,11.8,20.8,11.8C20.8,11.8,20.8,11.8,20.8,11.8z M20.8,11.8C20.8,11.9,20.8,11.9,20.8,11.8C20.8,11.9,20.8,11.9,20.8,11.8z M20.8,12C20.8,12,20.8,12,20.8,12C20.8,12,20.8,12,20.8,12z M9.6,9.8c1.1,0,2,0.9,2,2c0,0,0,0,0,0c0,0,0,0,0,0c0,0,0,0,0,0c0,0,0,0,0,0c0,1.1-0.9,2-2.1,2c-1.1,0-2.1-0.9-2.1-2C7.5,10.7,8.5,9.8,9.6,9.8z M11.6,11.4C11.6,11.4,11.6,11.4,11.6,11.4L11.6,11.4zM11.6,11.5C11.6,11.5,11.6,11.5,11.6,11.5C11.6,11.5,11.6,11.5,11.6,11.5z M11.6,11.6C11.6,11.6,11.6,11.6,11.6,11.6C11.6,11.6,11.6,11.6,11.6,11.6z M11.6,11.6C11.6,11.7,11.6,11.7,11.6,11.6C11.6,11.7,11.6,11.7,11.6,11.6z M11.6,11.9C11.6,11.9,11.6,11.9,11.6,11.9C11.6,11.9,11.6,11.9,11.6,11.9z M11.6,11.9C11.6,11.9,11.6,11.9,11.6,11.9C11.6,11.9,11.6,11.9,11.6,11.9z M11.6,11.9C11.6,12,11.6,12,11.6,11.9C11.6,12,11.6,12,11.6,11.9z M25.4,18.7c0,0.1-0.1,0.3-0.1,0.4c-1.7,2.9-4.1,4.7-7.4,5.4c-2.8,0.5-5.4,0-7.7-1.7c-1.4-1-2.5-2.2-3.2-3.8c-0.3-0.6,0.1-1.4,0.8-1.4c2.8,0,5.6,0,8.5,0c0,0,0,0,0,0c2.8,0,5.6,0,8.3,0c0.1,0,0.2,0,0.3,0C25.3,17.8,25.5,18.2,25.4,18.7z"/>
      <polygon points="20.8,11.7 20.8,11.7 20.8,11.7"/>
    </g>
    <g id="icon-comment">
      <path d="M27.1,5.3C24,2.8,20.3,1.5,16,1.5c-4.3,0-8,1.2-11.1,3.7c-3.1,2.5-4.6,5.5-4.6,9c0,2.1,0.6,4,1.7,5.8c1.2,1.8,2.7,3.3,4.7,4.5c-0.1,1-0.4,1.9-0.8,2.8c-0.4,0.9-0.8,1.5-1,1.8c-0.2,0.3-0.4,0.5-0.6,0.7c-0.2,0.2-0.2,0.4-0.1,0.7C4.4,30.9,4.6,31,4.9,31c2.9,0,5.7-1.4,8.5-4.1c0.9,0.1,1.8,0.2,2.7,0.2c4.3,0,8-1.2,11.1-3.7c3.1-2.5,4.6-5.5,4.6-9C31.7,10.8,30.2,7.8,27.1,5.3z"/>
    </g>
    <g id="icon-share">
      <path d="M26.6,12.7H1.9c-1,0-1.8,0.8-1.8,1.8c0,1,0.8,1.8,1.8,1.8h24.7c1,0,1.8-0.8,1.8-1.8C28.4,13.5,27.6,12.7,26.6,12.7z"/>
      <path d="M28.3,6.8C28.3,6.8,28.4,6.8,28.3,6.8l0.1-3.5c0,0,0-0.1-0.1-0.1H0.2c0,0-0.1,0-0.1,0.1v3.4c0,0,0,0.1,0.1,0.1H28.3z"/>
      <path d="M31.8,22.1h-3.5v-3.5c0,0,0-0.1-0.1-0.1h-3.4c0,0-0.1,0-0.1,0.1v3.5h-3.5c0,0-0.1,0-0.1,0.1v3.4c0,0,0,0.1,0.1,0.1h3.5v3.5c0,0,0,0.1,0.1,0.1h3.4c0,0,0.1,0,0.1-0.1v-3.5h3.5c0,0,0.1,0,0.1-0.1L31.8,22.1C31.9,22.2,31.9,22.1,31.8,22.1z"/>
      <path d="M0.2,22.1C0.1,22.1,0.1,22.2,0.2,22.1l-0.1,3.5c0,0,0,0.1,0.1,0.1h18.1c0,0,0.1,0,0.1-0.1v-3.4c0,0,0-0.1-0.1-0.1H0.2z"/>
    </g>
    <g id="icon-caret">
      <polygon points="10,0.1 6.1,4 18.1,16 6.1,28 10,31.9 22,19.9 22,19.9 25.9,16"/>
    </g>
    <g id="icon-heart">
      <path d="M31.6,9.1c-0.3-1.5-1-2.8-2.1-3.9c-1.7-1.7-3.7-2.5-6-2.5s-4.3,0.8-6,2.5c-0.6,0.6-1.1,1.3-1.5,2c-0.4-0.7-0.9-1.4-1.5-2c-1.6-1.6-3.6-2.5-6-2.5c-2.3,0-4.3,0.8-6,2.5C1.4,6.3,0.7,7.6,0.4,9.1c-0.3,1.5-0.1,3.1,0.7,4.8c0.7,1.7,1.9,3.5,3.6,5.2l10.8,10.9c0.1,0.1,0.3,0.2,0.5,0.2c0.1,0,0.3-0.1,0.5-0.2l10.8-10.9c1.7-1.7,2.9-3.4,3.6-5.2C31.6,12.2,31.9,10.6,31.6,9.1z"/>
    </g>
    <g id="icon-close">
      <path d="M19.7,16.2L31,4.9c1.2-1.1,1.2-2.9,0-4c-1.2-1.1-3.1-1.1-4.2,0L16,11.8L5.1,0.9C4-0.2,2.1-0.2,1,0.9C-0.2,2-0.2,3.9,1,5l11,11L1,26.9c-1.1,1.1-1.1,3,0,4.1c1.1,1.1,3,1.1,4.1,0l10.7-10.6l11,10.6c1.2,1.1,3.1,1.1,4.2,0c1.2-1.1,1.2-2.9,0-4L19.7,16.2z"/>
    </g>
    <g id="icon-arrow">
      <polygon points="0,18.6 22.8,18.6 16,25 19.1,27.9 28.7,18.9 28.7,18.9 29,18.6 29,18.6 29,18.6 31.8,16 29,13.4 29,13.4 29,13.4 19.1,4.1 16,7 22.8,13.4 0,13.4"/>
    </g>
    <g id="icon-mail-line">
      <path d="M31.8,5.7C31.5,4.2,30,4,28.7,4c-1.4,0-2.7,0-4.1,0c-4.2,0-8.5,0-12.7,0C9.1,4,6.4,4,3.6,4c-1,0-2,0.2-2.8,0.9C0.2,5.5,0,6,0,6.8c0,1.5,0,2.9,0,4.4c0,3.7,0,7.3,0,11c0,1.9,1.6,3.7,3.6,3.7c1,0,2,0,2.9,0c7.3,0,14.6,0.2,21.8,0c2.2,0,3.5-1.4,3.6-3.6c0-1.3,0-2.7,0-4c0-3.8,0-7.5,0-11.3C32,6.6,32,6.1,31.8,5.7C31.6,4.6,31.9,5.9,31.8,5.7z M3.5,6h25.9L16,16.8L2.6,6.1C2.7,6.1,3,6,3.5,6z M30,22.5c0,1.3-1.3,1.5-2.2,1.5c-1.2,0-2.4,0-3.6,0c-3.9,0-7.7,0-11.6,0c-2.9,0-5.7,0-8.6,0c-1,0-1.8-0.7-1.9-1.7c-0.1-1.3,0-2.7,0-4c0-3.3,0-6.7,0-10c4,3.2,8,6.4,11.9,9.5c0.4,0.4,0.9,0.8,1.4,1.1c0.9,0.5,1.4-0.2,2.1-0.7c2.3-1.8,4.6-3.6,6.9-5.5c1.9-1.5,3.8-3,5.7-4.5V22.5z"/>
    </g>
    <g id="icon-mail">
      <path d="M0.1,9.6v16.3c0,0.5,0.2,1,0.6,1.4c0.4,0.4,0.9,0.6,1.4,0.6h27.8c0.5,0,1-0.2,1.4-0.6c0.4-0.4,0.6-0.9,0.6-1.4V9.6L16,21.5L0.1,9.6z"/>
      <path d="M31.9,6c0-0.5-0.2-1-0.6-1.4c-0.4-0.4-0.9-0.6-1.4-0.6H2.1c-0.5,0-1,0.2-1.4,0.6C0.3,5,0.1,5.5,0.1,6L16,17.9L31.9,6z"/>
    </g>
    <g id="icon-desktop">
      <path d="M31.6,2.2c-0.4-0.4-0.8-0.5-1.3-0.5H1.8c-0.5,0-0.9,0.2-1.3,0.5C0.2,2.6,0,3,0,3.5l0,21.6c0,0.5,0.2,0.9,0.5,1.3c0.4,0.4,0.8,0.5,1.3,0.5h10.6v1.7l-5,0.6C7.1,29.3,7,29.5,7,29.8c0.1,0.3,0.3,0.5,0.6,0.5h16.6c0.2,0,0.3-0.1,0.4-0.2c0.1-0.1,0.2-0.3,0.2-0.4c0-0.3-0.1-0.5-0.4-0.5l-5-0.6v-1.7h10.7c0.5,0,0.9-0.2,1.3-0.5c0.4-0.4,0.6-0.8,0.6-1.3V3.5C32,3,31.9,2.6,31.6,2.2z M26.9,21.9H5.1V6.8h21.9V21.9z"/>
    </g>
    <g id="icon-mobile">
      <path d="M25.5,0.8c-0.5-0.5-1-0.7-1.7-0.7H8.2C7.6,0.1,7,0.3,6.5,0.8C6,1.3,5.8,1.9,5.8,2.5v26.9c0,0.7,0.2,1.3,0.7,1.7c0.5,0.5,1,0.7,1.7,0.7h15.6c0.7,0,1.2-0.2,1.7-0.7c0.5-0.5,0.7-1.1,0.7-1.7V2.5C26.2,1.9,26,1.3,25.5,0.8zM16,29.4c-0.7,0-1.3-0.6-1.3-1.3c0-0.7,0.6-1.3,1.3-1.3s1.3,0.6,1.3,1.3C17.3,28.8,16.7,29.4,16,29.4z M22.4,25.6H9.6V3.9h12.8V25.6z"/>
    </g>
    <g id="icon-code">
      <path d="M8.3,18.8l-4.9-3.6c1.6-1.3,3.3-2.5,4.9-3.8c0.4-0.4,0.4-1.1,0-1.5C7.8,9.4,7.2,9.4,6.6,9.6c-0.5,0.3-0.9,0.7-1.3,1c-0.5,0.4-1.1,0.9-1.6,1.3c-1,0.8-1.9,1.6-2.9,2.3h0C0.1,14.7,0,15.4,0.6,16c1.2,0.8,2.3,1.7,3.5,2.5c0.9,0.7,1.7,1.4,2.6,2c0.5,0.2,1.2,0.2,1.6-0.2C8.8,19.8,8.6,19.3,8.3,18.8L8.3,18.8z"/>
      <path d="M31.3,14.2L31.3,14.2l-0.9-0.7c-0.9-0.7-1.8-1.4-2.7-2.1c-0.4-0.3-0.9-0.7-1.3-1c-0.3-0.3-0.6-0.6-1-0.8c-0.5-0.2-1.2-0.2-1.6,0.3c-0.4,0.4-0.3,1.1,0.1,1.5c0.8,0.7,1.7,1.3,2.5,2l2.3,1.8l-4.9,3.7c-0.3,0.5-0.5,1.1,0,1.5c0.4,0.4,1.1,0.4,1.6,0.2l3.1-2.3l3-2.2C32.1,15.4,31.9,14.7,31.3,14.2z"/>
      <path d="M20,5.3c-0.6-0.2-1.2,0.1-1.5,0.5c0,0,0,0-0.1,0.1c-0.9,2.1-1.9,4.2-2.8,6.3l-4.8,11.2c-0.3,1.5,1.5,1.9,2.3,0.8c0.9-2.1,1.8-4.1,2.7-6.2l4.9-11.3C20.9,6.1,20.6,5.5,20,5.3z"/>
    </g>
    <g id="icon-facebook">
      <path fill="#4C67B0" d="M29.2,0H2.8C1.2,0,0,1.2,0,2.8v26.4C0,30.8,1.2,32,2.8,32h26.4c1.5,0,2.8-1.2,2.8-2.8V2.8C32,1.2,30.8,0,29.2,0z"/>
      <path fill="#FFFFFF" d="M16.1,25.4v-9.1h-2.5V13h2.5c0-1.6-0.3-3.4,0.4-4.9c1.2-2.7,4.5-2.8,7-2.3l-0.1,3.1c-0.9,0-2.9-0.4-3.4,0.6c-0.5,0.9-0.2,2.6-0.2,3.5h3.7l-0.3,3.3h-3.5v9.1H16.1z"/>
    </g>
    <g id="icon-twitter">
      <path fill="#2EA7DF" d="M29.2,0H2.8C1.2,0,0,1.2,0,2.8v26.4C0,30.8,1.2,32,2.8,32h26.4c1.5,0,2.8-1.2,2.8-2.8V2.8C32,1.2,30.8,0,29.2,0z"/>
      <path fill="#FFFFFF" d="M27.7,9c-0.6,0.8-1.3,1.6-2.1,2.2v0.5c0,0.9-0.1,1.9-0.4,2.8c-0.2,0.9-0.6,1.9-1,2.7c-0.4,0.9-1,1.7-1.7,2.5s-1.5,1.4-2.3,2c-0.9,0.6-1.8,1-3,1.4c-1.1,0.3-2.3,0.5-3.5,0.5c-2.5,0-4.7-0.6-6.4-1.7c0.3,0,0.6,0.1,1,0.1c0.9,0,1.8-0.2,2.7-0.5c0.9-0.4,1.7-0.8,2.5-1.4c-0.9,0-1.7-0.3-2.4-0.8c-0.7-0.5-1.2-1.2-1.5-2.1c0.3,0.1,0.5,0.1,0.8,0.1c0.4,0,0.8,0,1.1-0.1c-1-0.2-1.8-0.7-2.4-1.4c-0.6-0.8-1-1.7-1-2.7v0c0.6,0.3,1.2,0.5,1.9,0.5c-0.6-0.4-1-0.9-1.4-1.5c-0.3-0.6-0.5-1.3-0.5-2c0-0.7,0.2-1.4,0.6-2c1,1.3,2.3,2.3,3.8,3c1.5,0.7,3.1,1.2,4.8,1.3c-0.1-0.3-0.1-0.6-0.1-1c0-1.2,0.4-2.1,1.2-3c0.8-0.8,1.8-1.2,3-1.2c1.2,0,2.2,0.4,3.1,1.3c1-0.2,1.8-0.5,2.6-1c-0.3,1-0.9,1.8-1.8,2.3C26.1,9.6,26.9,9.3,27.7,9z"/>
    </g>
    <g id="icon-pinterest">
      <path fill="#C62728" d="M29.2,0H2.8C1.2,0,0,1.2,0,2.8v26.4C0,30.8,1.2,32,2.8,32h26.4c1.5,0,2.8-1.2,2.8-2.8V2.8C32,1.2,30.8,0,29.2,0z"/>
      <path fill="#FFFFFF" d="M17.4,5.9c2,0,4.1,0.8,5.5,2.3c1.5,1.7,1.8,4,1.4,6.2c-0.4,1.9-1.3,3.7-2.9,4.8c-1.5,1-4.6,1.4-5.6-0.5c-0.3,1.1-0.5,2.1-0.8,3.2c-0.2,0.7-0.5,1.4-0.9,2c-0.2,0.3-0.8,1.5-1,1.5c-0.9,0.1-0.2-4.3,0-5.2c0.4-1.6,0.9-3.2,1.1-4.9c0.1-0.9-0.4-1.8-0.2-2.8c0.2-1.2,1.2-2.6,2.6-2.1c3,1-1.6,5.7,0.6,7.4c1.3,0.9,2.8,0,3.6-1.1c0.9-1.3,1.2-3.1,1.1-4.6c-0.1-3.2-3.2-4.7-6.2-4c-3,0.8-5.1,4.4-3.4,7.3c0.3,0.5,0.3,0.9,0.1,1.5c-0.3,0.8-0.8,0.4-1.4,0c-1.3-1-1.6-2.9-1.5-4.5C9.9,8.3,13.7,5.9,17.4,5.9z"/>
    </g>
  </defs>
</svg>